# xmcd
#
# Track frame offsets:
#	150
#	13071
#	30276
#	44660
#	60598
#	80620
#	96924
#	115154
#	130971
#	146803
#	159334
#
# Disc length: 2373 seconds
#
# Revision: 1
# Processed by: cddbd v1.5.2PL0 Copyright (c) Steve Scherf et al.
# Submitted via: EZCDAudioConverter 7.1.2.1
#
DISCID=9009430b
DTITLE=Chelsea Basham - Youngest 2016
DYEAR=2016
DGENRE=Australia Country
TTITLE0=Why Ya Gotta Worry
TTITLE1=Soul Mate
TTITLE2=Youngest We'll Ever Be
TTITLE3=One of these Days
TTITLE4=Gold
TTITLE5=Just Go
TTITLE6=Best Friend
TTITLE7=Confusing and Beautiful
TTITLE8=I Want You
TTITLE9=Daydream
TTITLE10=Driftwood
EXTD=
EXTT0=
EXTT1=
EXTT2=
EXTT3=
EXTT4=
EXTT5=
EXTT6=
EXTT7=
EXTT8=
EXTT9=
EXTT10=
PLAYORDER=
